<svg width="640" height="168" viewBox="0 0 640 168" fill="none" xmlns="http://www.w3.org/2000/svg">
  <rect x="6" y="6" width="628" height="156" rx="14" fill="#FFFFFF" stroke="#D8D8D8" stroke-width="6"/>
  <rect x="34" y="44" width="56" height="56" rx="4" fill="#FFFFFF" stroke="#8E8E8E" stroke-width="4"/>
  <text x="116" y="84" fill="#3A3A3A" font-family="Arial, sans-serif" font-size="36">I'm not a robot</text>
  <g transform="translate(500,40)">
    <defs>
      <linearGradient id="g1" x1="0" y1="0" x2="94" y2="94" gradientUnits="userSpaceOnUse">
        <stop stop-color="#4FC3FF"/>
        <stop offset="1" stop-color="#0B3BFF"/>
      </linearGradient>
    </defs>
    <path d="M68 13c13 10 22 26 22 44 0 8-2 16-5 23" stroke="url(#g1)" stroke-width="12" stroke-linecap="round"/>
    <path d="M83 80l23 10-9-23" fill="#1E51FF"/>
    <path d="M24 83C11 73 3 57 3 39c0-8 2-16 5-22" stroke="url(#g1)" stroke-width="12" stroke-linecap="round"/>
    <path d="M9 0L0 23l23-10" fill="#63CCFF"/>
  </g>
</svg>
